PathFileType	4	(X/Y/Z)	/Users/niels/Desktop/University/Third Semester/Perception and Action/Exam/Gymnastics Motion Tracking/Code for Gym Tracking/Analyzed Data/Webcam_Backflip/id8_5_pure_Sports2D/id8_5_pure_Sports2D_px_person00.trc
DataRate	CameraRate	NumFrames	NumMarkers	Units	OrigDataRate	OrigDataStartFrame	OrigNumFrames
29.8125	29.8125	7	22	m	29.8125	40	160
Frame#	Time	Hip			RHip			RKnee			RAnkle			RBigToe			RSmallToe			RHeel			LHip			LKnee			LAnkle			LBigToe			LSmallToe			LHeel			Neck			Head			Nose			RShoulder			RElbow			RWrist			LShoulder			LElbow			LWrist		
		X1	Y1	Z1	X2	Y2	Z2	X3	Y3	Z3	X4	Y4	Z4	X5	Y5	Z5	X6	Y6	Z6	X7	Y7	Z7	X8	Y8	Z8	X9	Y9	Z9	X10	Y10	Z10	X11	Y11	Z11	X12	Y12	Z12	X13	Y13	Z13	X14	Y14	Z14	X15	Y15	Z15	X16	Y16	Z16	X17	Y17	Z17	X18	Y18	Z18	X19	Y19	Z19	X20	Y20	Z20	X21	Y21	Z21	X22	Y22	Z22
40	1.341719077568134	0.9275297161134729	-0.31369874950677645	0.0	0.9232459707343638	-0.31708093342541266	0.0	0.865202468019173	-0.3862112877702403	0.0	0.842147431173126	-0.32248999802995787	0.0	0.8133724527536245	-0.3289448886263018	0.0	0.8148807308810336	-0.3364151558169249	0.0	0.8420249482307858	-0.3094571536781118	0.0	0.9295811706877574	-0.3141531331125494	0.0	0.8784338593009673	-0.37673587061802377	0.0	0.8453899834201402	-0.31458802303828	0.0	0.8110820947982242	-0.3376472658418239	0.0	0.8187436857302912	-0.3648884749322508	0.0	0.8472717739147458	-0.303033908105345	0.0	0.9608667743248032	-0.42134563673700254	0.0	0.9839108927450056	-0.46403515084794755	0.0	0.9585056746280757	-0.45392967303454657	0.0	0.9508070706367354	-0.4079212391832393	0.0	0.9096877545500938	-0.38091074938831504	0.0	0.8891198366019505	-0.3849520110232386	0.0	0.9628988219653178	-0.41305822874050435	0.0	0.9326625334750568	-0.38597165391232524	0.0	0.9407520997241257	-0.4272069303944931	0.0
41	1.3752620545073373	0.9130932063172409	-0.3206725221491093	0.0	0.9080680005012264	-0.32439317757911174	0.0	0.8664324167717015	-0.4152405399885415	0.0	0.8171362533767451	-0.36881889678631813	0.0	0.7896291189027546	-0.38968366595239085	0.0	0.7888886798736189	-0.3907816871371081	0.0	0.8127730168488403	-0.35477927231466605	0.0	0.9161649939202097	-0.3219317309793894	0.0	0.8759992200102696	-0.4034538435529607	0.0	0.8210376834390063	-0.35977993891374443	0.0	0.789113772467069	-0.3890427065450102	0.0	0.7946217094868274	-0.40684990363710044	0.0	0.8179944017952578	-0.348338604181454	0.0	0.9763809120092041	-0.41738822971573364	0.0	1.0140226813521838	-0.4560670140265601	0.0	0.9844122375151801	-0.4521464799922529	0.0	0.9638857044053101	-0.4060381536349073	0.0	0.917393135140542	-0.39753438846689654	0.0	0.9008446906055455	-0.4180845926525288	0.0	0.9765293399373155	-0.4068763551717566	0.0	0.9402998401428594	-0.3988549452971495	0.0	0.9419767211464265	-0.43830362022276836	0.0
42	1.4088050314465406	0.898920471978692	-0.3376168357938928	0.0	0.8936716742729689	-0.34107776758335007	0.0	0.8695496089329458	-0.4454083759382023	0.0	0.8027993352130176	-0.42675106150909037	0.0	0.7831937244633367	-0.46030126582850994	0.0	0.7797216486144737	-0.45707665245022033	0.0	0.7944874397655731	-0.41412996216982084	0.0	0.9023635071844196	-0.3393167998759277	0.0	0.875049110756802	-0.4331116673905381	0.0	0.8065799074480673	-0.41620555739316384	0.0	0.7832919938075049	-0.4509253811214384	0.0	0.7857387893403202	-0.4591175445069378	0.0	0.7990299552879573	-0.4077331162293722	0.0	0.9862092032839403	-0.41164222826480107	0.0	1.0353776235672418	-0.44258402618517134	0.0	1.0039610501747898	-0.44478640688821613	0.0	0.9720723618218878	-0.40290218595447286	0.0	0.9300206878208027	-0.4147473886870884	0.0	0.9217534888674175	-0.4490692720740134	0.0	0.9840976684767704	-0.400349024991974	0.0	0.9498001094183549	-0.4123738709259034	0.0	0.9490366955350658	-0.4453764961661829	0.0
43	1.442348008385744	0.8866244185670246	-0.36390941423427775	0.0	0.881708345371479	-0.3666757981731381	0.0	0.8723018315702928	-0.47728343994289135	0.0	0.7994379888223528	-0.4909980543974678	0.0	0.7918736383868265	-0.5328656575242601	0.0	0.7858310111032357	-0.527920409784495	0.0	0.7881578726031082	-0.48202884038656135	0.0	0.8899408532594764	-0.36556778594388717	0.0	0.8741194381088786	-0.4660192926960046	0.0	0.802376490957974	-0.4790941009606121	0.0	0.7917863568262175	-0.5176944206815416	0.0	0.790849413978472	-0.51878068994226	0.0	0.7913347890339568	-0.47560811859862034	0.0	0.9894878749638354	-0.406852855563903	0.0	1.0468777086450278	-0.427607747040121	0.0	1.0155214099940644	-0.4353770103966863	0.0	0.9743788686986818	-0.40097296947980243	0.0	0.9466056974576363	-0.43067350815849437	0.0	0.9501602123007382	-0.4730810201566959	0.0	0.9852770019534381	-0.39618487666679525	0.0	0.9615116502500054	-0.42529919063997557	0.0	0.9642693670434748	-0.449819266599895	0.0
44	1.4758909853249473	0.877240495417851	-0.3980791884765752	0.0	0.8732189068283207	-0.400027622912107	0.0	0.8738765280933045	-0.5118118729102332	0.0	0.8050615674064544	-0.5563773518221986	0.0	0.8098758085436218	-0.6012859030080633	0.0	0.8020777312114082	-0.5966513204017266	0.0	0.7921541652782638	-0.5525356501048725	0.0	0.8800372790308424	-0.3992072432787464	0.0	0.8727486507110694	-0.5024329711276763	0.0	0.8066189643579489	-0.5440702551298005	0.0	0.8096447462845058	-0.5842058925358552	0.0	0.8055209572664692	-0.5814044225904652	0.0	0.7935014821636777	-0.5461958140193836	0.0	0.9863316637819329	-0.40572650113100517	0.0	1.0485404988912397	-0.4148115126259738	0.0	1.01875160409269	-0.42735356053091933	0.0	0.9709383638838025	-0.4028096438627653	0.0	0.9643540329782894	-0.4432817399782812	0.0	0.9818481782032216	-0.4861525748721396	0.0	0.9806132928759049	-0.3968358807175052	0.0	0.9740259679046925	-0.43569416970569613	0.0	0.9854259154649543	-0.4506186780060022	0.0
45	1.5094339622641506	0.8712549726512387	-0.4382762922041829	0.0	0.8685128766856426	-0.4394983613492011	0.0	0.874569410152259	-0.5494671203095187	0.0	0.8159834585728697	-0.6188809730503989	0.0	0.8302034500244175	-0.6622908701642484	0.0	0.8217732139884275	-0.6590838978434019	0.0	0.8026970408814379	-0.6205883042203665	0.0	0.8732661173331417	-0.4384481680097775	0.0	0.8714749247699923	-0.5420861509484929	0.0	0.8160654578904601	-0.607510540501783	0.0	0.8306598329605367	-0.6464348410347469	0.0	0.8239362593492019	-0.6424581898034892	0.0	0.802244769038487	-0.6146625078184353	0.0	0.9777803570126947	-0.41054882988926933	0.0	1.0411886346236254	-0.4068806906965008	0.0	1.014340668970237	-0.42353976258247134	0.0	0.9628483535883959	-0.41064130639139934	0.0	0.9794236598739036	-0.45158442440025026	0.0	1.010493562139004	-0.4867626591504312	0.0	0.9712852610541611	-0.40420478563266016	0.0	0.9843425578071644	-0.44242446562921267	0.0	1.0064069297994065	-0.44661590060053385	0.0
46	1.542976939203354	0.8686303537744653	-0.4823878030570631	0.0	0.8672008770856962	-0.48303869261237886	0.0	0.8750816073321085	-0.5897612539166075	0.0	0.8280608351516094	-0.675844995926322	0.0	0.8471644547133647	-0.7147820007196036	0.0	0.8391063871235778	-0.7133295906545633	0.0	0.8152795457808579	-0.6825311469404832	0.0	0.8697399726051718	-0.4813776562451427	0.0	0.871136190284683	-0.5839750708065614	0.0	0.827120752345327	-0.6662802766676843	0.0	0.8493669153164747	-0.7015928401831591	0.0	0.8408275225196139	-0.6983046934618446	0.0	0.8135483403122759	-0.677204614538824	0.0	0.9654999553336766	-0.4226498218726142	0.0	1.0264079400061612	-0.4054759273414777	0.0	1.0037599111783628	-0.42596302731564656	0.0	0.9517493452726139	-0.4256359504044121	0.0	0.9882516192578212	-0.4562021002990677	0.0	1.02947583230748	-0.4766524842006223	0.0	0.9588179061823673	-0.4191011260671329	0.0	0.9890940568296746	-0.446343970016365	0.0	1.0201527783929354	-0.4387969776705762	0.0
